<svg width="30" height="30" viewBox="0 0 30 30" fill="none" xmlns="http://www.w3.org/2000/svg">
<path d="M0 3.75C0 1.67893 1.67893 0 3.75 0H11.25C13.3211 0 15 1.67893 15 3.75V11.1144C15.0002 11.1594 15.0003 11.2046 15.0003 11.25C15.0003 13.3181 16.6744 14.9952 18.7413 15C18.7442 15 18.7471 15 18.75 15H26.25C28.3211 15 30 16.6789 30 18.75V26.25C30 28.3211 28.3211 30 26.25 30H18.75C16.6789 30 15 28.3211 15 26.25V18.75C15 18.7396 15 18.7292 15.0001 18.7188C14.9834 16.6621 13.3109 15 11.2503 15C11.2406 15 11.2309 15 11.2212 15H3.75C1.67893 15 0 13.3211 0 11.25V3.75Z" fill="#1F48C3"/>
</svg>
